<?xml version="1.0" ?><!DOCTYPE svg  PUBLIC '-//W3C//DTD SVG 1.1//EN'  'http://www.w3.org/Graphics/SVG/1.1/DTD/svg11.dtd'><svg height="2048px" style="shape-rendering:geometricPrecision; text-rendering:geometricPrecision; image-rendering:optimizeQuality; fill-rule:evenodd; clip-rule:evenodd" viewBox="0 0 2048 2048" width="2048px" xml:space="preserve" xmlns="http://www.w3.org/2000/svg" xmlns:xlink="http://www.w3.org/1999/xlink"><defs><style type="text/css">
   <![CDATA[
    .fil4 {fill:none}
    .fil0 {fill:none;fill-rule:nonzero}
    .fil3 {fill:#3299C3}
    .fil2 {fill:#424242;fill-rule:nonzero}
    .fil1 {fill:#7EB900;fill-rule:nonzero}
   ]]>
  </style></defs><g id="Layer_x0020_1"><g id="_337886184"><polyline class="fil0" id="_337887240" points="697.747,535.882 697.167,535.505 706.041,521.843 714.915,508.18 "/><path class="fil0" d="M699.833 537.409c-0.00236221,-0.0011811 0.129921,0.0531496 0.0307087,-0.0484252l9.03426 -13.5496 2.85945 -4.28977 5.01024 -7.51536 1.19646 -1.79291 -0.0826772 -0.0543308 -0.473622 -0.316536" id="_337886688"/><path class="fil1" d="M1582.3 496.717c1.89095,1.90158 3.7937,3.81378 5.37756,5.53229l-0.0354331 0.0307087c64.6288,69.8445 116.437,151.649 151.688,241.667 34.0016,86.8312 52.6737,181.297 52.6737,280.043 0,97.5095 -18.2256,190.795 -51.4241,276.698 -34.4504,89.1438 -85.0064,170.191 -148.028,239.629l-0.21378 0.548032c-71.628,78.5942 -159.397,142.356 -258.053,185.984 -94.8981,41.9646 -199.834,65.3067 -310.135,65.3067 -212.052,0 -404.09,-86.015 -543.111,-225.04 -139.023,-139.028 -225.036,-331.07 -225.036,-543.126 0,-99.7548 18.9827,-195.093 53.602,-282.565 35.863,-90.6166 88.5579,-172.81 154.352,-242.742l0.00590552 0.00590552c4.02284,-4.47166 39.267,-41.9823 93.1654,-45.652l1.97953 0c26.3977,1.52599 53.1792,8.03741 79.5579,17.8665 26.0008,9.68859 51.4666,22.5166 75.678,36.8941l0.574016 0.382677 2.49331 1.66181 0.498426 0.276378c99.8942,60.3142 179.147,147.659 179.378,147.912l10.7339 11.7614 -11.5642 11.0291c-48.4418,46.2071 -135.816,147.465 -214.244,256.651 -57.9095,80.6221 -110.792,165.39 -139.097,235.01 -52.865,129.758 -65.8973,219.995 -66.2941,276.613 15.737,-38.53 38.7154,-79.9997 65.1721,-121.383 71.8193,-112.343 169.823,-225.213 215.512,-274.063l0 -0.0637796c19.0984,-20.276 45.3721,-47.4827 73.8768,-76.6819 33.1784,-33.9862 69.3827,-70.6666 100.73,-102.171 50.015,-50.6835 79.5851,-80.2288 79.6713,-80.3162l11.3221 -11.3197 11.5335 11.1284c11.4732,11.0693 22.741,21.9874 33.8244,32.8181 10.9276,10.6807 21.5917,21.1973 31.9607,31.5768 47.7567,47.4555 89.5194,90.5859 125.385,128.609 35.3941,37.5225 65.6552,70.767 90.352,98.3729l0.0637796 0c25.0666,28.1481 61.454,70.7363 94.1576,110.114 29.1449,35.0894 54.8504,67.0536 66.1666,83.0138 34.4575,48.3213 59.2063,91.8284 76.8839,128.35 8.51221,17.5831 15.4099,33.7075 20.9882,48.0886 4.79646,-64.441 -3.17244,-123.338 -20.948,-181.159 -24.3957,-79.3536 -67.33,-157.231 -121.16,-244.612 -107.88,-175.133 -283.823,-346.22 -284.331,-346.716l-12.0945 -11.837 12.3496 -11.6575c80.1284,-75.6379 152.801,-125.252 208.994,-157.086 56.7898,-32.1697 96.9946,-46.3524 111.411,-50.9091l3.89528 -0.702756c18.4961,-1.21417 38.3433,0.728741 57.7748,8.2878 16.5024,6.41812 32.5252,16.8343 46.9099,32.7071l0.0637796 0c1.82008,2.02205 3.41575,3.62599 5.0126,5.23229z" id="_337886760"/><polygon class="fil2" id="_337887288" points="617.467,412.464 617.691,412.308 617.659,412.276 "/><path class="fil1" d="M616.891 412.871l0.575197 -0.407481c-0.881103,0.862205 -1.83189,1.75158 -3.42048,2.80866l-20.811 -24.8339c2.40236,-2.51811 5.33622,-5.15788 8.27481,-7.57796 3.40748,-2.80512 6.75945,-5.26772 9.25985,-6.87875l0.00944883 0.0153543c60.5989,-39.4075 126.039,-69.6166 195.828,-89.8879 68.6599,-19.9441 141.331,-30.2646 217.539,-30.2646 70.7067,0 139.429,9.6756 204.797,27.7406 67.4245,18.6343 131.145,46.2166 189.662,81.3331l-0.00472441 0.00826772c5.43308,3.1937 16.0488,10.3146 26.1981,18.6047 7.38898,6.03662 14.6788,12.7559 20.0114,19.2721l-24.7063 21.2599c-0.184252,-0.20315 -0.386221,-0.379134 -0.570473,-0.579922l-0.00354331 0.00354331 -0.0377953 -0.0448819c-99.0013,-107.02 -405.117,139.241 -406.003,139.949l-9.95788 7.95119 -10.1528 -7.82363c-54.9367,-42.3331 -107.545,-77.8678 -155.75,-105.307 -47.2666,-26.9055 -90.1938,-45.9508 -126.775,-55.8815l0 -0.0637796c-25.6441,-7.03465 -47.687,-8.46497 -65.8973,-6.59292 -21.8929,2.25236 -37.7351,9.15355 -47.2678,16.5685l0.00236221 0.00236221 -0.0318898 0.0318898 -0.00590552 -0.00590552 -0.264567 0.205512 -0.46063 0.359055 -0.0366142 0.0366142z" id="_337886112"/><path class="fil2" d="M616.813 412.923c-0.43937,0.316536 -0.26811,0.194882 0.034252,-0.0200788l-0.00354331 -0.00354331 -0.0307087 0.0236221z" id="_337885968"/></g><path class="fil3" d="M2509.17 2015.33c-25.2721,0 -45.8327,20.5606 -45.8327,45.8327l0 741.667c0,25.2709 20.5606,45.8327 45.8327,45.8327l741.667 0c25.2709,0 45.8327,-20.5618 45.8327,-45.8327l0 -741.667c0,-25.2721 -20.5618,-45.8327 -45.8327,-45.8327l-741.667 0zm741.667 841.666l-741.667 0c-29.8689,0 -54.1666,-24.3 -54.1666,-54.1666l0 -741.667c0,-29.8677 24.2977,-54.1666 54.1666,-54.1666l741.667 0c29.8666,0 54.1666,24.2988 54.1666,54.1666l0 741.667c0,29.8666 -24.3,54.1666 -54.1666,54.1666z"/></g><rect class="fil4" height="2048" width="2048" backgroundColor="#9bf00b"/></svg>